<?xml version="1.0" encoding="UTF-8"?>
<svg xmlns="http://www.w3.org/2000/svg" width="274" height="274" viewBox="0 0 274 274">
  <defs>
    <linearGradient id="bgGradient" x1="0%" y1="0%" x2="100%" y2="100%">
      <stop offset="0%" stop-color="#0a5e65"/>
      <stop offset="100%" stop-color="#6eb061"/>
    </linearGradient>
  </defs>
  <path d="M 35 1 C 35 1.550, 34.307 2, 33.460 2 C 31.140 2, 24.142 5.746, 18.267 10.132 C 12.384 14.525, 6.388 22.133, 2.566 30.055 L -0 35.374 -0 138.114 L -0 240.853 3.993 248.747 C 8.607 257.871, 21.959 272, 25.967 272 C 26.600 272, 26.840 272.450, 26.500 273 C 26.089 273.665, 65.954 274, 145.335 274 L 264.788 274 267.894 271.099 C 269.602 269.503, 271 267.478, 271 266.599 C 271 265.719, 271.604 265, 272.342 265 C 273.392 265, 273.828 261.040, 274.342 246.840 C 275.378 218.240, 275.113 32.272, 274.039 33.971 C 273.527 34.780, 272.972 35.230, 272.804 34.971 C 272.637 34.712, 270.967 31.421, 269.093 27.658 C 264.576 18.587, 254.996 8.860, 246.726 4.947 C 243.302 3.327, 239.686 2.001, 238.691 2.001 C 237.696 2, 237.160 1.550, 237.500 1 C 237.910 0.336, 204.010 0, 136.559 0 C 69.520 0, 35 0.340, 35 1 M 0.482 138 C 0.482 195.475, 0.602 218.987, 0.750 190.250 C 0.897 161.512, 0.897 114.487, 0.750 85.750 C 0.602 57.012, 0.482 80.525, 0.482 138" fill="url(#bgGradient)"/>
  <path d="M 72 106.368 C 72 166.583, 71.417 161.795, 79.086 164.570 C 88.799 168.085, 93.111 168.874, 93.734 167.252 C 94.049 166.429, 93.992 150.285, 93.605 131.378 C 93.007 102.120, 93.113 97, 94.314 97 C 95.090 97, 99.315 100.740, 103.704 105.312 C 116.998 119.159, 122.844 130.979, 129.491 157.449 L 132.742 170.399 134.287 164.949 C 135.136 161.952, 136.361 156.866, 137.008 153.647 C 139.124 143.124, 146.987 125.351, 154.297 114.571 C 158.282 108.695, 170.477 96, 172.137 96 C 172.612 96, 173.025 106.463, 173.056 119.250 L 173.111 142.500 175.302 139.500 C 177.458 136.548, 190.166 123.655, 193.252 121.289 C 194.655 120.214, 194.770 116.364, 194.282 86.789 C 193.980 68.480, 193.591 53.336, 193.418 53.135 C 193.245 52.935, 189.593 54.663, 185.302 56.977 C 161.485 69.820, 144.651 89.191, 136.644 112.969 C 135.326 116.882, 133.901 120.088, 133.476 120.094 C 133.051 120.099, 131.709 117.268, 130.495 113.802 C 121.264 87.456, 104.834 68.491, 80.750 56.380 L 72 51.980 72 106.368 M 211 121.370 C 199.187 125.961, 194.547 128.893, 186.706 136.719 C 175.705 147.699, 173.159 154.741, 174.475 170.540 C 175.227 179.572, 175.909 180.155, 178.016 173.570 C 180.994 164.266, 197.493 143, 201.734 143 C 203.820 143, 203.428 143.730, 192.100 160.946 C 185.439 171.070, 182.297 176.697, 182.944 177.344 C 184.158 178.558, 194.926 174.144, 201.740 169.639 C 213.325 161.980, 218.996 152.638, 221.074 137.789 C 222.204 129.708, 221.671 117.960, 220.178 118.033 C 219.805 118.051, 215.675 119.553, 211 121.370 M 50 162.778 C 50 165.527, 53.795 176.654, 56.718 182.478 C 74.634 218.171, 119.191 236.038, 161 224.296 C 182.738 218.190, 200.253 203.659, 210.105 183.553 C 213.506 176.615, 215.387 170.570, 213.235 173.500 C 212.831 174.050, 211.857 174.639, 211.070 174.810 C 210.284 174.980, 208.484 175.935, 207.070 176.932 C 198.902 182.690, 176.079 190.927, 161 193.559 C 147.975 195.833, 123.371 195.894, 111.431 193.682 C 99.528 191.476, 91.582 188.733, 91.184 186.691 C 90.804 184.748, 91.630 184.556, 107.500 182.892 L 119.500 181.634 109 180.430 C 82.754 177.420, 71.096 173.813, 54.250 163.491 C 50.332 161.090, 50 161.035, 50 162.778" fill="#FFFFFF"/>
</svg>
